<?xml version="1.0" standalone="no"?>
<!DOCTYPE svg PUBLIC "-//W3C//DTD SVG 20010904//EN"
 "http://www.w3.org/TR/2001/REC-SVG-20010904/DTD/svg10.dtd">
<svg version="1.0" xmlns="http://www.w3.org/2000/svg"
 width="891.000000pt" height="891.000000pt" viewBox="0 0 891.000000 891.000000"
 preserveAspectRatio="xMidYMid meet">
<metadata>
Created by potrace 1.14, written by Peter Selinger 2001-2017
</metadata>
<g transform="translate(0.000000,891.000000) scale(0.100000,-0.100000)"
fill="#000000" stroke="none">
<path d="M4065 8855 c-960 -87 -1835 -459 -2561 -1090 -94 -81 -334 -322 -420
-420 -399 -459 -702 -998 -883 -1570 -85 -270 -139 -526 -177 -845 -19 -158
-26 -639 -11 -825 94 -1206 693 -2329 1647 -3089 47 -37 92 -74 102 -81 77
-62 327 -227 467 -308 123 -71 426 -217 566 -272 267 -106 638 -211 880 -249
332 -53 432 -61 765 -61 324 0 559 16 730 50 13 2 42 7 65 11 132 19 412 88
605 150 397 126 919 389 1220 614 19 14 64 48 100 75 250 188 528 455 759 730
13 15 58 74 101 130 271 357 487 756 641 1188 122 339 208 745 237 1107 15
196 8 675 -13 840 -2 19 -7 58 -10 85 -66 545 -278 1160 -570 1655 -290 491
-690 941 -1141 1282 -684 518 -1504 830 -2359 897 -163 12 -580 10 -740 -4z"/>
</g>
</svg>
